<svg xmlns="http://www.w3.org/2000/svg" viewBox="0 0 48 48" width="48" height="48">
  <circle cx="24" cy="24" r="22" fill="#F5F3FF" stroke="#8B5CF6" stroke-width="2"/>
  <path d="M24 8 C15.2 8 8 15.2 8 24 C8 31.1 12.6 37 19 39.2 C19.8 39.4 20 38.9 20 38.5 L20 35.6 C14.7 36.6 13.8 33.2 13.8 33.2 C13.1 31.4 12 31 12 31 C10.5 30 12.1 30 12.1 30 C13.8 30.1 14.7 31.7 14.7 31.7 C16.2 34.2 18.6 33.5 19.1 33.2 C19.3 32.1 19.7 31.4 20.2 31 C16 30.5 11.6 28.8 11.6 22.6 C11.6 20.9 12.2 19.5 13.2 18.4 C13 17.9 12.4 16.3 13.4 14.2 C13.4 14.2 14.8 13.7 18 15.6 C19.4 15.2 20.9 15 22.4 15 C23.9 15 25.4 15.2 26.8 15.6 C30 13.7 31.4 14.2 31.4 14.2 C32.4 16.3 31.8 17.9 31.6 18.4 C32.6 19.5 33.2 20.9 33.2 22.6 C33.2 28.8 28.8 30.5 24.6 31 C25.2 31.5 25.8 32.5 25.8 34 L25.8 38.5 C25.8 38.9 26 39.4 26.8 39.2 C33.4 37 38 31.1 38 24 C38 15.2 30.8 8 24 8 Z" fill="#6366F1"/>
</svg>